<svg version="1.1" xmlns="http://www.w3.org/2000/svg" xmlns:xlink="http://www.w3.org/1999/xlink" width="942.01171875" height="468"><defs/><g><g transform="translate(-6,-30) scale(1,1)"><rect fill="#ffffff" stroke="none" x="16" y="200" width="263" height="288"/></g><g transform="translate(-6,-30) scale(1,1)"><path fill="none" stroke="#000000" d="M 16 200 L 279 200 L 279 488 L 16 488 L 16 200 Z Z" stroke-miterlimit="10"/></g><g transform="translate(-6,-30) scale(1,1)"><rect fill="#ffffff" stroke="none" x="336" y="40" width="343" height="448"/></g><g transform="translate(-6,-30) scale(1,1)"><path fill="none" stroke="#000000" d="M 336 40 L 679 40 L 679 488 L 336 488 L 336 40 Z Z" stroke-miterlimit="10"/></g><g transform="translate(-6,-30) scale(1,1)"><rect fill="#C0C0C0" stroke="none" x="433" y="279" width="174" height="96" opacity="0.2"/></g><g transform="translate(-6,-30) scale(1,1)"><rect fill="#ffffff" stroke="none" x="426" y="272" width="174" height="96"/></g><g transform="translate(-6,-30) scale(1,1)"><path fill="none" stroke="#000000" d="M 426 272 L 600 272 L 600 368 L 426 368 L 426 272 Z Z" stroke-miterlimit="10"/></g><g transform="translate(-6,-30) scale(1,1)"><rect fill="#ffffff" stroke="none" x="416" y="279" width="20" height="10"/></g><g transform="translate(-6,-30) scale(1,1)"><path fill="none" stroke="#000000" d="M 416 279 L 436 279 L 436 289 L 416 289 L 416 279 Z Z" stroke-miterlimit="10"/></g><g transform="translate(-6,-30) scale(1,1)"><rect fill="#ffffff" stroke="none" x="416" y="299" width="20" height="10"/></g><g transform="translate(-6,-30) scale(1,1)"><path fill="none" stroke="#000000" d="M 416 299 L 436 299 L 436 309 L 416 309 L 416 299 Z Z" stroke-miterlimit="10"/></g><g transform="translate(-6,-30) scale(1,1)"><g><path fill="none" stroke="none"/><text fill="#000000" stroke="none" font-family="Arial" font-size="13px" font-style="normal" font-weight="bold" text-decoration="none" x="482.96728515625" y="291.5">Crystal-core</text></g></g><g transform="translate(-6,-30) scale(1,1)"><path fill="#C0C0C0" stroke="none" d="M 818.2681640625 287 L 845.7081640625 287 L 857.4681640625 298.76 L 857.4681640625 336 L 818.2681640625 336" opacity="0.2"/></g><g transform="translate(-6,-30) scale(1,1)"><path fill="#ffffff" stroke="none" d="M 811.2681640625 280 L 838.7081640625 280 L 850.4681640625 291.76 L 850.4681640625 329 L 811.2681640625 329"/></g><g transform="translate(-6,-30) scale(1,1)"><path fill="none" stroke="#000000" d="M 811.2681640625 280 L 838.7081640625 280 L 850.4681640625 291.76 L 850.4681640625 329 L 811.2681640625 329 L 811.2681640625 280" stroke-miterlimit="10"/></g><g transform="translate(-6,-30) scale(1,1)"><path fill="none" stroke="#000000" d="M 838.7081640625 280 L 838.7081640625 291.76 L 850.4681640625 291.76 L 838.7081640625 280" stroke-miterlimit="10"/></g><g transform="translate(-6,-30) scale(1,1)"><g><path fill="none" stroke="none"/><text fill="#000000" stroke="none" font-family="Arial" font-size="13px" font-style="normal" font-weight="bold" text-decoration="none" x="811" y="348.5">lockfile</text></g></g><g transform="translate(-6,-30) scale(1,1)"><rect fill="#C0C0C0" stroke="none" x="761" y="79" width="158" height="96" opacity="0.2"/></g><g transform="translate(-6,-30) scale(1,1)"><rect fill="#ffffff" stroke="none" x="754" y="72" width="158" height="96"/></g><g transform="translate(-6,-30) scale(1,1)"><path fill="none" stroke="#000000" d="M 754 72 L 912 72 L 912 168 L 754 168 L 754 72 Z Z" stroke-miterlimit="10"/></g><g transform="translate(-6,-30) scale(1,1)"><rect fill="#ffffff" stroke="none" x="744" y="79" width="20" height="10"/></g><g transform="translate(-6,-30) scale(1,1)"><path fill="none" stroke="#000000" d="M 744 79 L 764 79 L 764 89 L 744 89 L 744 79 Z Z" stroke-miterlimit="10"/></g><g transform="translate(-6,-30) scale(1,1)"><rect fill="#ffffff" stroke="none" x="744" y="99" width="20" height="10"/></g><g transform="translate(-6,-30) scale(1,1)"><path fill="none" stroke="#000000" d="M 744 99 L 764 99 L 764 109 L 744 109 L 744 99 Z Z" stroke-miterlimit="10"/></g><g transform="translate(-6,-30) scale(1,1)"><g><path fill="none" stroke="none"/><text fill="#000000" stroke="none" font-family="Arial" font-size="13px" font-style="normal" font-weight="bold" text-decoration="none" x="797.885986328125" y="91.5">League Client</text></g></g><g transform="translate(-6,-30) scale(1,1)"><path fill="#C0C0C0" stroke="none" d="M 496.041357421875 407 L 523.481357421875 407 L 535.241357421875 418.76 L 535.241357421875 456 L 496.041357421875 456" opacity="0.2"/></g><g transform="translate(-6,-30) scale(1,1)"><path fill="#ffffff" stroke="none" d="M 489.041357421875 400 L 516.481357421875 400 L 528.241357421875 411.76 L 528.241357421875 449 L 489.041357421875 449"/></g><g transform="translate(-6,-30) scale(1,1)"><path fill="none" stroke="#000000" d="M 489.041357421875 400 L 516.481357421875 400 L 528.241357421875 411.76 L 528.241357421875 449 L 489.041357421875 449 L 489.041357421875 400" stroke-miterlimit="10"/></g><g transform="translate(-6,-30) scale(1,1)"><path fill="none" stroke="#000000" d="M 516.481357421875 400 L 516.481357421875 411.76 L 528.241357421875 411.76 L 516.481357421875 400" stroke-miterlimit="10"/></g><g transform="translate(-6,-30) scale(1,1)"><g><path fill="none" stroke="none"/><text fill="#000000" stroke="none" font-family="Arial" font-size="13px" font-style="normal" font-weight="bold" text-decoration="none" x="477.9345703125" y="468.5">SQLite DB</text></g></g><g transform="translate(-6,-30) scale(1,1)"><rect fill="#C0C0C0" stroke="none" x="433" y="87" width="174" height="96" opacity="0.2"/></g><g transform="translate(-6,-30) scale(1,1)"><rect fill="#ffffff" stroke="none" x="426" y="80" width="174" height="96"/></g><g transform="translate(-6,-30) scale(1,1)"><path fill="none" stroke="#000000" d="M 426 80 L 600 80 L 600 176 L 426 176 L 426 80 Z Z" stroke-miterlimit="10"/></g><g transform="translate(-6,-30) scale(1,1)"><rect fill="#ffffff" stroke="none" x="416" y="87" width="20" height="10"/></g><g transform="translate(-6,-30) scale(1,1)"><path fill="none" stroke="#000000" d="M 416 87 L 436 87 L 436 97 L 416 97 L 416 87 Z Z" stroke-miterlimit="10"/></g><g transform="translate(-6,-30) scale(1,1)"><rect fill="#ffffff" stroke="none" x="416" y="107" width="20" height="10"/></g><g transform="translate(-6,-30) scale(1,1)"><path fill="none" stroke="#000000" d="M 416 107 L 436 107 L 436 117 L 416 117 L 416 107 Z Z" stroke-miterlimit="10"/></g><g transform="translate(-6,-30) scale(1,1)"><g><path fill="none" stroke="none"/><text fill="#000000" stroke="none" font-family="Arial" font-size="13px" font-style="normal" font-weight="bold" text-decoration="none" x="484.766845703125" y="99.5">Crystal-app</text></g></g><g transform="translate(-6,-30) scale(1,1)"><g><path fill="none" stroke="none"/><text fill="#000000" stroke="none" font-family="Arial" font-size="13px" font-style="normal" font-weight="normal" text-decoration="none" x="365" y="66">Crystal Application</text></g></g><g transform="translate(-6,-30) scale(1,1)"><path fill="none" stroke="#000000" d="M 601 319 L 799 317" stroke-miterlimit="10" stroke-dasharray="3"/></g><g transform="translate(-6,-30) scale(1,1)"><path fill="none" stroke="#000000" d="M 788.880361765976 321.31195106795985 L 799 317 L 788.795325341268 312.89334502186597" stroke-miterlimit="10"/></g><g transform="translate(-6,-30) scale(1,1)"><g><path fill="none" stroke="none"/><text fill="#000000" stroke="none" font-family="Arial" font-size="13px" font-style="normal" font-weight="normal" text-decoration="none" x="619.5" y="308.5">+watches</text></g></g><g transform="translate(-6,-30) scale(1,1)"><path fill="none" stroke="#000000" d="M 828 169 L 830 279" stroke-miterlimit="10" stroke-dasharray="3"/></g><g transform="translate(-6,-30) scale(1,1)"><path fill="none" stroke="#000000" d="M 825.6064324869807 268.9155285459008 L 830 279 L 834.0240767678188 268.7624804680674" stroke-miterlimit="10"/></g><g transform="translate(-6,-30) scale(1,1)"><g><path fill="none" stroke="none"/><text fill="#000000" stroke="none" font-family="Arial" font-size="13px" font-style="normal" font-weight="normal" text-decoration="none" x="843.5" y="230.5">+writes - deletes</text></g></g><g transform="translate(-6,-30) scale(1,1)"><path fill="none" stroke="#000000" d="M 508 177 L 508 271" stroke-miterlimit="10" stroke-dasharray="3"/></g><g transform="translate(-6,-30) scale(1,1)"><path fill="none" stroke="#000000" d="M 503.790482243984 260.83732514237585 L 508 271 L 512.209517756016 260.83732514237585" stroke-miterlimit="10"/></g><g transform="translate(-6,-30) scale(1,1)"><g><path fill="none" stroke="none"/><text fill="#000000" stroke="none" font-family="Arial" font-size="13px" font-style="normal" font-weight="normal" text-decoration="none" x="522.5" y="231.5">+http REST</text></g></g><g transform="translate(-6,-30) scale(1,1)"><path fill="none" stroke="#000000" d="M 586 271 L 750 169" stroke-miterlimit="10" stroke-dasharray="3"/></g><g transform="translate(-6,-30) scale(1,1)"><path fill="none" stroke="#000000" d="M 743.5934627176944 177.9418275565137 L 750 169 L 739.1470671423457 170.79272094516878" stroke-miterlimit="10"/></g><g transform="translate(-6,-30) scale(1,1)"><g><path fill="none" stroke="none"/><text fill="#000000" stroke="none" font-family="Arial" font-size="13px" font-style="normal" font-weight="normal" text-decoration="none" x="703.5" y="227.5">+http REST</text></g></g><g transform="translate(-6,-30) scale(1,1)"><path fill="none" stroke="#000000" d="M 508 369 L 508 399" stroke-miterlimit="10" stroke-dasharray="3"/></g><g transform="translate(-6,-30) scale(1,1)"><path fill="none" stroke="#000000" d="M 503.790482243984 388.83732514237585 L 508 399 L 512.209517756016 388.83732514237585" stroke-miterlimit="10"/></g><g transform="translate(-6,-30) scale(1,1)"><rect fill="#C0C0C0" stroke="none" x="121" y="295" width="126" height="64" opacity="0.2"/></g><g transform="translate(-6,-30) scale(1,1)"><rect fill="#ffffff" stroke="none" x="114" y="288" width="126" height="64"/></g><g transform="translate(-6,-30) scale(1,1)"><path fill="none" stroke="#000000" d="M 114 288 L 240 288 L 240 352 L 114 352 L 114 288 Z Z" stroke-miterlimit="10"/></g><g transform="translate(-6,-30) scale(1,1)"><rect fill="#ffffff" stroke="none" x="104" y="295" width="20" height="10"/></g><g transform="translate(-6,-30) scale(1,1)"><path fill="none" stroke="#000000" d="M 104 295 L 124 295 L 124 305 L 104 305 L 104 295 Z Z" stroke-miterlimit="10"/></g><g transform="translate(-6,-30) scale(1,1)"><rect fill="#ffffff" stroke="none" x="104" y="315" width="20" height="10"/></g><g transform="translate(-6,-30) scale(1,1)"><path fill="none" stroke="#000000" d="M 104 315 L 124 315 L 124 325 L 104 325 L 104 315 Z Z" stroke-miterlimit="10"/></g><g transform="translate(-6,-30) scale(1,1)"><g><path fill="none" stroke="none"/><text fill="#000000" stroke="none" font-family="Arial" font-size="13px" font-style="normal" font-weight="bold" text-decoration="none" x="171.523193359375" y="307.5">API</text></g></g><g transform="translate(-6,-30) scale(1,1)"><g><path fill="none" stroke="none"/><text fill="#000000" stroke="none" font-family="Arial" font-size="13px" font-style="normal" font-weight="normal" text-decoration="none" x="37" y="234">Internet</text></g></g><g transform="translate(-6,-30) scale(1,1)"><path fill="none" stroke="#000000" d="M 415 320 L 241 320" stroke-miterlimit="10" stroke-dasharray="3"/></g><g transform="translate(-6,-30) scale(1,1)"><path fill="none" stroke="#000000" d="M 251.16267485762415 315.790482243984 L 241 320 L 251.16267485762415 324.209517756016" stroke-miterlimit="10"/></g><g transform="translate(-6,-30) scale(1,1)"><g><path fill="none" stroke="none"/><text fill="#000000" stroke="none" font-family="Arial" font-size="13px" font-style="normal" font-weight="normal" text-decoration="none" x="343.5" y="308.5">+http REST</text></g></g></g></svg>