<svg version="1.1" xmlns="http://www.w3.org/2000/svg" xmlns:xlink="http://www.w3.org/1999/xlink" width="926.01171875" height="494"><defs/><g><g transform="translate(-6,-102) scale(1,1)"><rect fill="#ffffff" stroke="none" x="16" y="184" width="263" height="288"/></g><g transform="translate(-6,-102) scale(1,1)"><path fill="none" stroke="#000000" d="M 16 184 L 279 184 L 279 472 L 16 472 L 16 184 Z Z" stroke-miterlimit="10"/></g><g transform="translate(-6,-102) scale(1,1)"><path fill="#C0C0C0" stroke="none" d="M 802.2681640625 351 L 829.7081640625 351 L 841.4681640625 362.76 L 841.4681640625 400 L 802.2681640625 400" opacity="0.2"/></g><g transform="translate(-6,-102) scale(1,1)"><path fill="#ffffff" stroke="none" d="M 795.2681640625 344 L 822.7081640625 344 L 834.4681640625 355.76 L 834.4681640625 393 L 795.2681640625 393"/></g><g transform="translate(-6,-102) scale(1,1)"><path fill="none" stroke="#000000" d="M 795.2681640625 344 L 822.7081640625 344 L 834.4681640625 355.76 L 834.4681640625 393 L 795.2681640625 393 L 795.2681640625 344" stroke-miterlimit="10"/></g><g transform="translate(-6,-102) scale(1,1)"><path fill="none" stroke="#000000" d="M 822.7081640625 344 L 822.7081640625 355.76 L 834.4681640625 355.76 L 822.7081640625 344" stroke-miterlimit="10"/></g><g transform="translate(-6,-102) scale(1,1)"><g><path fill="none" stroke="none"/><text fill="#000000" stroke="none" font-family="Arial" font-size="13px" font-style="normal" font-weight="bold" text-decoration="none" x="795" y="412.5">lockfile</text></g></g><g transform="translate(-6,-102) scale(1,1)"><rect fill="#C0C0C0" stroke="none" x="745" y="143" width="158" height="96" opacity="0.2"/></g><g transform="translate(-6,-102) scale(1,1)"><rect fill="#ffffff" stroke="none" x="738" y="136" width="158" height="96"/></g><g transform="translate(-6,-102) scale(1,1)"><path fill="none" stroke="#000000" d="M 738 136 L 896 136 L 896 232 L 738 232 L 738 136 Z Z" stroke-miterlimit="10"/></g><g transform="translate(-6,-102) scale(1,1)"><rect fill="#ffffff" stroke="none" x="728" y="143" width="20" height="10"/></g><g transform="translate(-6,-102) scale(1,1)"><path fill="none" stroke="#000000" d="M 728 143 L 748 143 L 748 153 L 728 153 L 728 143 Z Z" stroke-miterlimit="10"/></g><g transform="translate(-6,-102) scale(1,1)"><rect fill="#ffffff" stroke="none" x="728" y="163" width="20" height="10"/></g><g transform="translate(-6,-102) scale(1,1)"><path fill="none" stroke="#000000" d="M 728 163 L 748 163 L 748 173 L 728 173 L 728 163 Z Z" stroke-miterlimit="10"/></g><g transform="translate(-6,-102) scale(1,1)"><g><path fill="none" stroke="none"/><text fill="#000000" stroke="none" font-family="Arial" font-size="13px" font-style="normal" font-weight="bold" text-decoration="none" x="781.885986328125" y="155.5">League Client</text></g></g><g transform="translate(-6,-102) scale(1,1)"><rect fill="#C0C0C0" stroke="none" x="369" y="119" width="294" height="360" opacity="0.2"/></g><g transform="translate(-6,-102) scale(1,1)"><rect fill="#ffffff" stroke="none" x="362" y="112" width="294" height="360"/></g><g transform="translate(-6,-102) scale(1,1)"><path fill="none" stroke="#000000" d="M 362 112 L 656 112 L 656 472 L 362 472 L 362 112 Z Z" stroke-miterlimit="10"/></g><g transform="translate(-6,-102) scale(1,1)"><rect fill="#ffffff" stroke="none" x="352" y="119" width="20" height="10"/></g><g transform="translate(-6,-102) scale(1,1)"><path fill="none" stroke="#000000" d="M 352 119 L 372 119 L 372 129 L 352 129 L 352 119 Z Z" stroke-miterlimit="10"/></g><g transform="translate(-6,-102) scale(1,1)"><rect fill="#ffffff" stroke="none" x="352" y="139" width="20" height="10"/></g><g transform="translate(-6,-102) scale(1,1)"><path fill="none" stroke="#000000" d="M 352 139 L 372 139 L 372 149 L 352 149 L 352 139 Z Z" stroke-miterlimit="10"/></g><g transform="translate(-6,-102) scale(1,1)"><g><path fill="none" stroke="none"/><text fill="#000000" stroke="none" font-family="Arial" font-size="13px" font-style="normal" font-weight="bold" text-decoration="none" x="480.766845703125" y="131.5">Crystal-app</text></g></g><g transform="translate(-6,-102) scale(1,1)"><path fill="none" stroke="#000000" d="M 609 383 L 783 381" stroke-miterlimit="10" stroke-dasharray="3"/></g><g transform="translate(-6,-102) scale(1,1)"><path fill="none" stroke="#000000" d="M 772.8863784768351 385.3260443463025 L 783 381 L 772.7896143456317 376.9075649316001" stroke-miterlimit="10"/></g><g transform="translate(-6,-102) scale(1,1)"><g><path fill="none" stroke="none"/><text fill="#000000" stroke="none" font-family="Arial" font-size="13px" font-style="normal" font-weight="normal" text-decoration="none" x="671.5" y="373.5">+watches</text></g></g><g transform="translate(-6,-102) scale(1,1)"><path fill="none" stroke="#000000" d="M 812 233 L 814 343" stroke-miterlimit="10" stroke-dasharray="3"/></g><g transform="translate(-6,-102) scale(1,1)"><path fill="none" stroke="#000000" d="M 809.6064324869807 332.9155285459008 L 814 343 L 818.0240767678188 332.7624804680674" stroke-miterlimit="10"/></g><g transform="translate(-6,-102) scale(1,1)"><g><path fill="none" stroke="none"/><text fill="#000000" stroke="none" font-family="Arial" font-size="13px" font-style="normal" font-weight="normal" text-decoration="none" x="827.5" y="294.5">+writes - deletes</text></g></g><g transform="translate(-6,-102) scale(1,1)"><path fill="none" stroke="#000000" d="M 516 433 L 516 511" stroke-miterlimit="10" stroke-dasharray="3"/></g><g transform="translate(-6,-102) scale(1,1)"><path fill="none" stroke="#000000" d="M 511.790482243984 500.83732514237585 L 516 511 L 520.209517756016 500.83732514237585" stroke-miterlimit="10"/></g><g transform="translate(-6,-102) scale(1,1)"><rect fill="#C0C0C0" stroke="none" x="113" y="359" width="126" height="64" opacity="0.2"/></g><g transform="translate(-6,-102) scale(1,1)"><rect fill="#ffffff" stroke="none" x="106" y="352" width="126" height="64"/></g><g transform="translate(-6,-102) scale(1,1)"><path fill="none" stroke="#000000" d="M 106 352 L 232 352 L 232 416 L 106 416 L 106 352 Z Z" stroke-miterlimit="10"/></g><g transform="translate(-6,-102) scale(1,1)"><rect fill="#ffffff" stroke="none" x="96" y="359" width="20" height="10"/></g><g transform="translate(-6,-102) scale(1,1)"><path fill="none" stroke="#000000" d="M 96 359 L 116 359 L 116 369 L 96 369 L 96 359 Z Z" stroke-miterlimit="10"/></g><g transform="translate(-6,-102) scale(1,1)"><rect fill="#ffffff" stroke="none" x="96" y="379" width="20" height="10"/></g><g transform="translate(-6,-102) scale(1,1)"><path fill="none" stroke="#000000" d="M 96 379 L 116 379 L 116 389 L 96 389 L 96 379 Z Z" stroke-miterlimit="10"/></g><g transform="translate(-6,-102) scale(1,1)"><g><path fill="none" stroke="none"/><text fill="#000000" stroke="none" font-family="Arial" font-size="13px" font-style="normal" font-weight="bold" text-decoration="none" x="163.523193359375" y="371.5">API</text></g></g><g transform="translate(-6,-102) scale(1,1)"><g><path fill="none" stroke="none"/><text fill="#000000" stroke="none" font-family="Arial" font-size="13px" font-style="normal" font-weight="normal" text-decoration="none" x="37" y="234">Internet</text></g></g><g transform="translate(-6,-102) scale(1,1)"><path fill="none" stroke="#000000" d="M 423 384 L 233 384" stroke-miterlimit="10" stroke-dasharray="3"/></g><g transform="translate(-6,-102) scale(1,1)"><path fill="none" stroke="#000000" d="M 243.16267485762415 379.790482243984 L 233 384 L 243.16267485762415 388.209517756016" stroke-miterlimit="10"/></g><g transform="translate(-6,-102) scale(1,1)"><g><path fill="none" stroke="none"/><text fill="#000000" stroke="none" font-family="Arial" font-size="13px" font-style="normal" font-weight="normal" text-decoration="none" x="287.5" y="371.5">+http REST</text></g></g><g transform="translate(-6,-102) scale(1,1)"><rect fill="#C0C0C0" stroke="none" x="441" y="343" width="174" height="96" opacity="0.2"/></g><g transform="translate(-6,-102) scale(1,1)"><rect fill="#ffffff" stroke="none" x="434" y="336" width="174" height="96"/></g><g transform="translate(-6,-102) scale(1,1)"><path fill="none" stroke="#000000" d="M 434 336 L 608 336 L 608 432 L 434 432 L 434 336 Z Z" stroke-miterlimit="10"/></g><g transform="translate(-6,-102) scale(1,1)"><rect fill="#ffffff" stroke="none" x="424" y="343" width="20" height="10"/></g><g transform="translate(-6,-102) scale(1,1)"><path fill="none" stroke="#000000" d="M 424 343 L 444 343 L 444 353 L 424 353 L 424 343 Z Z" stroke-miterlimit="10"/></g><g transform="translate(-6,-102) scale(1,1)"><rect fill="#ffffff" stroke="none" x="424" y="363" width="20" height="10"/></g><g transform="translate(-6,-102) scale(1,1)"><path fill="none" stroke="#000000" d="M 424 363 L 444 363 L 444 373 L 424 373 L 424 363 Z Z" stroke-miterlimit="10"/></g><g transform="translate(-6,-102) scale(1,1)"><g><path fill="none" stroke="none"/><text fill="#000000" stroke="none" font-family="Arial" font-size="13px" font-style="normal" font-weight="bold" text-decoration="none" x="490.96728515625" y="355.5">Crystal-core</text></g></g><g transform="translate(-6,-102) scale(1,1)"><path fill="#C0C0C0" stroke="none" d="M 504.041357421875 519 L 531.481357421875 519 L 543.241357421875 530.76 L 543.241357421875 568 L 504.041357421875 568" opacity="0.2"/></g><g transform="translate(-6,-102) scale(1,1)"><path fill="#ffffff" stroke="none" d="M 497.041357421875 512 L 524.481357421875 512 L 536.241357421875 523.76 L 536.241357421875 561 L 497.041357421875 561"/></g><g transform="translate(-6,-102) scale(1,1)"><path fill="none" stroke="#000000" d="M 497.041357421875 512 L 524.481357421875 512 L 536.241357421875 523.76 L 536.241357421875 561 L 497.041357421875 561 L 497.041357421875 512" stroke-miterlimit="10"/></g><g transform="translate(-6,-102) scale(1,1)"><path fill="none" stroke="#000000" d="M 524.481357421875 512 L 524.481357421875 523.76 L 536.241357421875 523.76 L 524.481357421875 512" stroke-miterlimit="10"/></g><g transform="translate(-6,-102) scale(1,1)"><g><path fill="none" stroke="none"/><text fill="#000000" stroke="none" font-family="Arial" font-size="13px" font-style="normal" font-weight="bold" text-decoration="none" x="485.9345703125" y="580.5">SQLite DB</text></g></g><g transform="translate(-6,-102) scale(1,1)"><rect fill="#C0C0C0" stroke="none" x="425" y="167" width="206" height="112" opacity="0.2"/></g><g transform="translate(-6,-102) scale(1,1)"><rect fill="#ffffff" stroke="none" x="418" y="160" width="206" height="112"/></g><g transform="translate(-6,-102) scale(1,1)"><path fill="none" stroke="#000000" d="M 418 160 L 624 160 L 624 272 L 418 272 L 418 160 Z Z" stroke-miterlimit="10"/></g><g transform="translate(-6,-102) scale(1,1)"><rect fill="#ffffff" stroke="none" x="408" y="167" width="20" height="10"/></g><g transform="translate(-6,-102) scale(1,1)"><path fill="none" stroke="#000000" d="M 408 167 L 428 167 L 428 177 L 408 177 L 408 167 Z Z" stroke-miterlimit="10"/></g><g transform="translate(-6,-102) scale(1,1)"><rect fill="#ffffff" stroke="none" x="408" y="187" width="20" height="10"/></g><g transform="translate(-6,-102) scale(1,1)"><path fill="none" stroke="#000000" d="M 408 187 L 428 187 L 428 197 L 408 197 L 408 187 Z Z" stroke-miterlimit="10"/></g><g transform="translate(-6,-102) scale(1,1)"><g><path fill="none" stroke="none"/><text fill="#000000" stroke="none" font-family="Arial" font-size="13px" font-style="normal" font-weight="bold" text-decoration="none" x="499.749267578125" y="179.5">Webview</text></g></g><g transform="translate(-6,-102) scale(1,1)"><path fill="none" stroke="#000000" d="M 516 273 L 516 335" stroke-miterlimit="10" stroke-dasharray="3"/></g><g transform="translate(-6,-102) scale(1,1)"><path fill="none" stroke="#000000" d="M 511.790482243984 324.83732514237585 L 516 335 L 520.209517756016 324.83732514237585" stroke-miterlimit="10"/></g><g transform="translate(-6,-102) scale(1,1)"><path fill="none" stroke="#000000" d="M 516 335 L 516 273" stroke-miterlimit="10" stroke-dasharray="3"/></g><g transform="translate(-6,-102) scale(1,1)"><path fill="none" stroke="#000000" d="M 520.209517756016 283.16267485762415 L 516 273 L 511.790482243984 283.16267485762415" stroke-miterlimit="10"/></g><g transform="translate(-6,-102) scale(1,1)"><path fill="none" stroke="#000000" d="M 589 335 L 739 233" stroke-miterlimit="10" stroke-dasharray="3"/></g><g transform="translate(-6,-102) scale(1,1)"><path fill="none" stroke="#000000" d="M 732.9632688478146 242.19553571012773 L 739 233 L 728.2291608088152 235.233612123364" stroke-miterlimit="10"/></g><g transform="translate(-6,-102) scale(1,1)"><g><path fill="none" stroke="none"/><text fill="#000000" stroke="none" font-family="Arial" font-size="13px" font-style="normal" font-weight="normal" text-decoration="none" x="679.5" y="299.5">+WebSocket</text></g></g></g></svg>